# xmcd
#
# Track frame offsets:
#	150
#	21557
#	39172
#	52300
#	67845
#	83587
#	101800
#	121817
#	137285
#	152552
#	171777
#
# Disc length: 2609 seconds
#
# Revision: 1
# Processed by: cddbd v1.4PL0 Copyright (c) Steve Scherf et al.
# Submitted via: audiograbber 1.80
#
DISCID=850a2f0b
DTITLE=Zerrin Özer - Ben... Cd 2
DYEAR=1900
DGENRE=
TTITLE0=Yoksun Sen
TTITLE1=Aglamiyacaksin
TTITLE2=Kurulsam Gönül Tahtina
TTITLE3=Ben Böyleyim
TTITLE4=Sev Beni
TTITLE5=Ask Istiyor Gönlüm
TTITLE6=Senede Bir Gün
TTITLE7=Benimsin
TTITLE8=Seninle Basim Dertte
TTITLE9=Ben Buyum
TTITLE10=Havada Bulut Yok
EXTD=
EXTT0=
EXTT1=
EXTT2=
EXTT3=
EXTT4=
EXTT5=
EXTT6=
EXTT7=
EXTT8=
EXTT9=
EXTT10=
PLAYORDER=
